<svg width="6378" height="1207" viewBox="0 0 6378 1207" fill="none" xmlns="http://www.w3.org/2000/svg">
<circle cx="600" cy="600" r="599.5" fill="#D8E9A8" stroke="#D8E9A8"/>
<path d="M938.169 1068.26C938.227 843.064 938.227 609.047 938.169 366.263C938.14 347.533 922.207 332.94 903.856 336.552C899.807 337.339 893.195 340.572 883.99 346.223C789.847 403.897 695.734 461.542 601.62 519.187C600.804 519.682 599.989 519.682 599.173 519.187C432.471 417.063 336.115 357.903 310.103 341.708C301.627 336.406 293.005 334.892 284.295 337.164C276.518 339.203 270.576 343.659 266.469 350.504C262.187 357.67 262.74 366.176 262.74 375.759C262.42 746.999 262.245 954.043 262.216 996.891" stroke="#1E5128"/>
<path d="M938.213 1096L934.713 1098.5C914.713 1112 895.213 1123 895.213 1123C751.713 1202 612.713 1211.5 490.713 1190.5C407.805 1176.23 329.713 1141.5 264.713 1098L262.213 1096C261.747 1064.37 262.186 1028.56 262.216 996.9C262.245 954.052 262.419 747.008 262.74 375.768C262.74 366.184 262.186 357.679 266.468 350.513C270.575 343.668 276.518 339.211 284.295 337.173C293.004 334.9 301.626 336.415 310.103 341.717C336.114 357.912 432.471 417.072 599.172 519.195C599.988 519.691 600.803 519.691 601.619 519.195C695.733 461.55 789.846 403.906 883.989 346.231C893.194 340.581 899.806 337.347 903.855 336.561C922.206 332.949 938.139 347.542 938.168 366.272C938.226 609.056 938.226 843.073 938.168 1068.26C938.168 1076.22 938.563 1088.08 938.213 1096ZM481.465 735.823C437.044 780.244 384.322 812.896 323.327 833.752C312.171 837.568 304.918 842.491 304.918 854.754C304.918 867.046 312.171 871.939 323.327 875.755C384.322 896.64 437.044 929.293 481.465 973.714C525.885 1018.13 558.538 1070.83 579.394 1131.82C583.21 1142.98 588.133 1150.26 600.396 1150.26C612.688 1150.23 617.61 1142.98 621.426 1131.82C642.282 1070.83 674.935 1018.11 719.356 973.685C763.777 929.264 816.47 896.64 877.494 875.755C888.621 871.939 895.903 867.017 895.903 854.754C895.903 842.462 888.621 837.568 877.464 833.752C816.47 812.867 763.777 780.214 719.327 735.794C674.906 691.402 642.282 638.68 621.397 577.685C617.581 566.529 612.659 559.276 600.396 559.276C588.103 559.276 583.21 566.529 579.394 577.685C558.509 638.68 525.885 691.402 481.465 735.823Z" fill="#1E5128" stroke="#1E5128"/>
<path d="M642.061 768.603L606.291 810.344C603 814.189 597.058 814.189 593.766 810.344L557.996 768.603C553.423 763.273 557.21 755 564.259 755H635.798C642.847 755 646.634 763.273 642.061 768.603Z" fill="#1E5128" stroke="#1E5128"/>
<path d="M1858.61 1046.2C1798.61 1046.2 1745.41 1033.8 1699.01 1009C1652.61 984.2 1615.41 950.2 1587.41 907C1559.41 863 1543.01 812.2 1538.21 754.6L1646.21 747.4C1655.01 810.6 1677.81 859.4 1714.61 893.8C1752.21 928.2 1801.01 945.4 1861.01 945.4C1920.21 945.4 1965.41 934.2 1996.61 911.8C2028.61 889.4 2044.61 857.4 2044.61 815.8C2044.61 788.6 2038.21 765 2025.41 745C2013.41 724.2 1990.21 705 1955.81 687.4C1922.21 669.8 1872.21 651.8 1805.81 633.4C1746.61 616.6 1698.61 598.2 1661.81 578.2C1625.81 558.2 1599.41 533.8 1582.61 505C1566.61 476.2 1558.61 440.6 1558.61 398.2C1558.61 350.2 1569.81 308.2 1592.21 272.2C1615.41 235.4 1648.21 207 1690.61 187C1733.01 166.2 1783.41 155.8 1841.81 155.8C1900.21 155.8 1950.21 167.8 1991.81 191.8C2033.41 215 2066.21 247 2090.21 287.8C2115.01 328.6 2130.61 375 2137.01 427L2029.01 434.2C2021.81 382.2 2002.61 339.8 1971.41 307C1941.01 273.4 1897.01 256.6 1839.41 256.6C1786.61 256.6 1744.61 269.4 1713.41 295C1682.21 319.8 1666.61 352.6 1666.61 393.4C1666.61 419.8 1672.21 441.8 1683.41 459.4C1695.41 476.2 1716.21 491.4 1745.81 505C1775.41 517.8 1817.01 531.8 1870.61 547C1940.21 566.2 1995.41 587.8 2036.21 611.8C2077.81 635.8 2107.41 664.6 2125.01 698.2C2143.41 731 2152.61 771 2152.61 818.2C2152.61 863 2140.21 902.6 2115.41 937C2090.61 971.4 2056.21 998.2 2012.21 1017.4C1968.21 1036.6 1917.01 1046.2 1858.61 1046.2ZM2520.54 1041.4C2457.34 1041.4 2406.94 1020.2 2369.34 977.8C2331.74 934.6 2312.94 875.4 2312.94 800.2V391H2413.74V772.6C2413.74 834.2 2424.54 879.8 2446.14 909.4C2468.54 938.2 2502.54 952.6 2548.14 952.6C2597.74 952.6 2636.94 936.6 2665.74 904.6C2694.54 871.8 2708.94 827 2708.94 770.2V391H2809.74V1027H2713.74V923.8C2678.54 1002.2 2614.14 1041.4 2520.54 1041.4ZM3020.47 1207V391H3114.07L3115.27 493C3134.47 455.4 3160.87 426.6 3194.47 406.6C3228.87 386.6 3267.67 376.6 3310.87 376.6C3374.07 376.6 3425.67 392.2 3465.67 423.4C3506.47 454.6 3536.47 495.4 3555.67 545.8C3574.87 596.2 3584.47 650.6 3584.47 709C3584.47 767.4 3574.87 821.8 3555.67 872.2C3536.47 922.6 3506.47 963.4 3465.67 994.6C3425.67 1025.8 3374.07 1041.4 3310.87 1041.4C3269.27 1041.4 3231.27 1032.6 3196.87 1015C3163.27 997.4 3138.07 973.4 3121.27 943V1207H3020.47ZM3301.27 945.4C3356.47 945.4 3399.67 924.6 3430.87 883C3462.87 841.4 3478.87 783.4 3478.87 709C3478.87 634.6 3462.87 576.6 3430.87 535C3399.67 493.4 3356.47 472.6 3301.27 472.6C3246.07 472.6 3202.07 492.6 3169.27 532.6C3137.27 571.8 3121.27 630.6 3121.27 709C3121.27 786.6 3137.27 845.4 3169.27 885.4C3201.27 925.4 3245.27 945.4 3301.27 945.4ZM3959.6 1041.4C3896.4 1041.4 3846 1020.2 3808.4 977.8C3770.8 934.6 3752 875.4 3752 800.2V391H3852.8V772.6C3852.8 834.2 3863.6 879.8 3885.2 909.4C3907.6 938.2 3941.6 952.6 3987.2 952.6C4036.8 952.6 4076 936.6 4104.8 904.6C4133.6 871.8 4148 827 4148 770.2V391H4248.8V1027H4152.8V923.8C4117.6 1002.2 4053.2 1041.4 3959.6 1041.4ZM4471.53 1027V938.2H4637.13V479.8H4471.53V391H4721.13L4728.33 513.4C4749.93 431.8 4800.73 391 4880.73 391H5011.53V482.2H4881.93C4835.53 482.2 4799.93 496.2 4775.13 524.2C4750.33 551.4 4737.93 591 4737.93 643V938.2H4939.53V1027H4471.53ZM5191.06 1027V938.2H5356.66V479.8H5191.06V391H5440.66L5447.86 513.4C5469.46 431.8 5520.26 391 5600.26 391H5731.06V482.2H5601.46C5555.06 482.2 5519.46 496.2 5494.66 524.2C5469.86 551.4 5457.46 591 5457.46 643V938.2H5659.06V1027H5191.06Z" fill="#1E5128"/>
</svg>
